<mxfile host="app.diagrams.net" modified="2024-06-20T20:21:35.833Z" agent="Mozilla/5.0 (Macintosh; Intel Mac OS X 10_15_7) AppleWebKit/537.36 (KHTML, like Gecko) Chrome/125.0.0.0 Safari/537.36" version="24.5.5" etag="r_-mJ7ncJ52seNkr-clO" type="github">
  <diagram name="Page-1" id="LRHuKW5KmHFt0NIajRC5">
    <mxGraphModel>
      <root>
        <mxCell id="0" />
        <mxCell id="1" parent="0" />
      </root>
    </mxGraphModel>
  </diagram>
</mxfile>
